<svg aria-hidden="true" style="position:absolute;width:0;height:0;overflow:hidden"><defs>
<symbol id="i-record" viewBox="0 0 24 24"><rect x="4" y="3" width="16" height="18" rx="4"/><circle cx="12" cy="10" r="3"/><path d="M9 17h6"/></symbol><symbol id="i-grid" viewBox="0 0 24 24"><rect x="3" y="3" width="7" height="7" rx="1"/><rect x="14" y="3" width="7" height="7" rx="1"/><rect x="3" y="14" width="7" height="7" rx="1"/><rect x="14" y="14" width="7" height="7" rx="1"/></symbol><symbol id="i-model" viewBox="0 0 24 24"><path d="m12 3 9 5-9 5-9-5 9-5ZM3 12l9 5 9-5M3 16l9 5 9-5"/></symbol><symbol id="i-settings" viewBox="0 0 24 24"><path d="M4 7h16M4 17h16"/><circle cx="9" cy="7" r="3" fill="var(--surface)"/><circle cx="16" cy="17" r="3" fill="var(--surface)"/></symbol><symbol id="i-mic" viewBox="0 0 24 24"><rect x="9" y="3" width="6" height="12" rx="3"/><path d="M5 11v1a7 7 0 0 0 14 0v-1M12 19v3M8 22h8"/></symbol><symbol id="i-screen" viewBox="0 0 24 24"><rect x="3" y="4" width="18" height="13" rx="2"/><path d="M8 21h8M12 17v4"/></symbol><symbol id="i-sound" viewBox="0 0 24 24"><path d="m11 5-5 4H3v6h3l5 4V5ZM15 8a6 6 0 0 1 0 8M18 5a10 10 0 0 1 0 14"/></symbol><symbol id="i-check" viewBox="0 0 24 24"><path d="m5 12 4 4L19 6"/></symbol><symbol id="i-folder" viewBox="0 0 24 24"><path d="M3 6a2 2 0 0 1 2-2h5l2 3h7a2 2 0 0 1 2 2v10H3V6Z"/></symbol><symbol id="i-arrow" viewBox="0 0 24 24"><path d="M5 12h14m-5-5 5 5-5 5"/></symbol><symbol id="i-open" viewBox="0 0 24 24"><path d="M13 4h7v7M20 4 10 14M10 4H4v16h16v-6"/></symbol><symbol id="i-moon" viewBox="0 0 24 24"><path d="M20 14a8 8 0 0 1-10-10 8.5 8.5 0 1 0 10 10Z"/></symbol><symbol id="i-info" viewBox="0 0 24 24"><circle cx="12" cy="12" r="9"/><path d="M12 11v6M12 7v.1"/></symbol><symbol id="i-download" viewBox="0 0 24 24"><path d="M12 3v12m-5-5 5 5 5-5M4 17v4h16v-4"/></symbol><symbol id="i-cloud" viewBox="0 0 24 24"><path d="M6 18a5 5 0 0 1-1-10 7 7 0 0 1 13-1 5.5 5.5 0 0 1 0 11H6Z"/></symbol><symbol id="i-clock" viewBox="0 0 24 24"><circle cx="12" cy="12" r="9"/><path d="M12 7v5l3 2"/></symbol><symbol id="i-stop" viewBox="0 0 24 24"><rect x="6" y="6" width="12" height="12" rx="1"/></symbol><symbol id="i-lock" viewBox="0 0 24 24"><rect x="5" y="10" width="14" height="11" rx="2"/><path d="M8 10V7a4 4 0 0 1 8 0v3"/></symbol><symbol id="i-file" viewBox="0 0 24 24"><path d="M14 3H5v18h14V8l-5-5ZM14 3v6h5M8 13h8M8 17h5"/></symbol>
</defs></svg>